<svg width="159" height="32" viewBox="0 0 159 32" fill="none" xmlns="http://www.w3.org/2000/svg">
<path d="M39.9318 12.6474C40.901 11.9205 41.9187 11.5328 43.0817 11.5328C44.051 11.5328 44.9717 11.7751 45.844 12.2597C46.7163 12.7443 47.3947 13.4228 47.8309 14.2466C48.4124 15.2643 48.7032 16.6212 48.7032 18.3658V25.7803H44.7294V18.5596C44.7294 17.2512 44.584 16.3789 44.2448 15.8458C43.9056 15.3612 43.324 15.0704 42.5002 15.0704C42.0156 15.0704 41.5795 15.1674 41.1918 15.3612C40.8041 15.555 40.5133 15.7974 40.3679 16.0881C40.0772 16.5727 39.9318 17.4935 39.9318 18.8019V25.7318H35.958V5.03906H39.9318V12.6474Z" fill="#D93B30"/>
<path d="M58.3471 11.5312C60.5763 11.5312 62.4178 12.3066 63.8716 13.9058C65.1316 15.3112 65.7616 16.9589 65.7616 18.8973C65.7616 21.1265 64.9378 22.968 63.3386 24.4218C61.9332 25.6818 60.2855 26.3118 58.3471 26.3118C56.1179 26.3118 54.2764 25.4879 52.8226 23.8887C51.5626 22.4834 50.9326 20.8357 50.9326 18.8973C50.9326 16.6681 51.7565 14.8266 53.3557 13.3728C54.761 12.1128 56.4087 11.5312 58.3471 11.5312ZM58.3471 15.1173C57.281 15.1173 56.4087 15.505 55.7787 16.2804C55.1972 16.9589 54.9549 17.8311 54.9549 18.8488C54.9549 20.0603 55.2941 21.0296 56.021 21.7565C56.651 22.3865 57.4264 22.6772 58.3471 22.6772C59.4617 22.6772 60.2855 22.2895 60.9155 21.5142C61.4971 20.8357 61.7394 19.9634 61.7394 18.8973C61.7394 17.6858 61.4001 16.7166 60.6732 16.0381C60.0432 15.4081 59.2679 15.1173 58.3471 15.1173Z" fill="#D93B30"/>
<path d="M66.9729 22.0491L70.3167 20.7891C70.7044 21.516 71.0436 22.0006 71.3828 22.2914C71.7221 22.5821 72.1097 22.7275 72.5944 22.7275C72.982 22.7275 73.2728 22.6306 73.5151 22.4367C73.7574 22.2429 73.8543 21.9521 73.8543 21.6129C73.8543 21.3706 73.7574 21.1768 73.612 21.0314C73.4182 20.886 73.079 20.6922 72.4974 20.4499L70.6559 19.7229C68.766 18.996 67.8452 17.7361 67.8452 15.943C67.8452 14.5861 68.3783 13.4715 69.4444 12.5992C70.3652 11.8723 71.5282 11.4846 72.8367 11.4846C75.0174 11.4846 76.6651 12.5508 77.8281 14.683L74.6297 16.1853C74.0482 15.3615 73.4666 14.9253 72.7882 14.9253C72.0128 14.9253 71.6251 15.2161 71.6251 15.8461C71.6251 16.0884 71.7221 16.2338 71.8674 16.3792C72.0128 16.5245 72.4005 16.6699 72.982 16.9122L74.5812 17.5422C76.762 18.366 77.8281 19.6745 77.8281 21.4191C77.8281 22.8729 77.2466 24.0844 76.132 25.0536C75.1143 25.8775 73.9512 26.3136 72.5459 26.3136C69.8805 26.3136 68.039 24.9082 66.9729 22.0491Z" fill="#D93B30"/>
<path d="M84.1765 15.5569V21.1784C84.1765 21.9538 84.3703 22.3414 84.758 22.3414C85.0973 22.3414 85.6788 22.1961 86.4542 21.9538V25.6852C85.6303 25.976 84.9034 26.0729 84.1765 26.0729C82.8196 26.0729 81.8019 25.5883 81.1235 24.6191C80.4935 23.7953 80.2027 22.6807 80.2027 21.2268V15.5569H78.7974V12.0193H80.2027V9.16012L84.1765 7.60938V12.0193H86.2603V15.5569H84.1765Z" fill="#D93B30"/>
<path d="M97.4062 25.1485C96.437 25.9239 95.4193 26.3115 94.2562 26.3115C93.287 26.3115 92.3662 26.0692 91.494 25.5846C90.6217 25.1 89.9432 24.4216 89.5071 23.5977C88.9255 22.5801 88.6348 21.2232 88.6348 19.4786V12.0156H92.6086V19.1878C92.6086 20.4963 92.7539 21.417 93.0932 21.9016C93.4324 22.3862 94.0139 22.677 94.8377 22.677C95.2739 22.677 95.71 22.5801 96.0977 22.3862C96.4854 22.1924 96.7762 21.9501 96.9216 21.6593C97.2123 21.1747 97.3577 20.254 97.3577 18.9455V12.0156H101.331V25.8269H97.4062V25.1485Z" fill="#D93B30"/>
<path d="M118.293 25.7803H114.271V25.0049C113.641 25.441 113.059 25.7803 112.526 25.9741C111.993 26.168 111.363 26.2649 110.685 26.2649C108.601 26.2649 106.856 25.441 105.403 23.7934C104.191 22.388 103.561 20.7403 103.561 18.8504C103.561 16.6696 104.336 14.8281 105.887 13.3743C107.244 12.1143 108.843 11.4843 110.636 11.4843C111.315 11.4843 111.945 11.5813 112.478 11.7751C113.011 11.969 113.592 12.3082 114.222 12.7928V5.03906H118.245V25.7803H118.293ZM111.024 15.1189C109.909 15.1189 109.086 15.5066 108.456 16.282C107.923 16.9604 107.632 17.8327 107.632 18.9473C107.632 20.1104 107.971 21.0796 108.698 21.758C109.328 22.3396 110.103 22.6788 111.024 22.6788C112.09 22.6788 112.914 22.2911 113.544 21.5157C114.077 20.8373 114.319 19.965 114.319 18.8988C114.319 17.6873 113.98 16.7181 113.302 16.0397C112.672 15.4097 111.945 15.1189 111.024 15.1189Z" fill="#D93B30"/>
<path d="M134.285 22.3888C132.686 25.0057 130.505 26.3141 127.743 26.3141C125.514 26.3141 123.72 25.5387 122.315 23.9395C121.104 22.5342 120.474 20.8865 120.474 18.9481C120.474 16.7189 121.249 14.9258 122.8 13.472C124.108 12.212 125.707 11.582 127.549 11.582C129.73 11.582 131.426 12.4059 132.734 14.0535C133.897 15.4589 134.479 17.2035 134.479 19.2873C134.479 19.4327 134.479 19.7719 134.43 20.3534H124.544C125.029 22.0011 126.095 22.8249 127.694 22.8249C129.003 22.8249 130.069 22.2434 130.796 21.0803L134.285 22.3888ZM130.553 17.5427C130.02 15.8466 129.003 15.0227 127.549 15.0227C125.998 15.0227 125.029 15.8466 124.544 17.5427H130.553Z" fill="#D93B30"/>
<path d="M140.73 12.6458C141.699 11.9189 142.717 11.5312 143.88 11.5312C144.849 11.5312 145.77 11.7736 146.642 12.2582C147.515 12.7428 148.193 13.4212 148.629 14.2451C149.211 15.2627 149.502 16.6196 149.502 18.3642V25.7787H145.528V18.5581C145.528 17.2496 145.382 16.3773 145.043 15.8443C144.704 15.3597 144.122 15.0689 143.299 15.0689C142.814 15.0689 142.378 15.1658 141.99 15.3597C141.602 15.5535 141.312 15.7958 141.166 16.0866C140.876 16.5712 140.73 17.4919 140.73 18.8004V25.7303H136.756V12.0159H140.73V12.6458Z" fill="#D93B30"/>
<path d="M156.722 15.5569V21.1784C156.722 21.9538 156.916 22.3414 157.303 22.3414C157.643 22.3414 158.224 22.1961 159 21.9538V25.6852C158.176 25.976 157.449 26.0729 156.722 26.0729C155.365 26.0729 154.347 25.5883 153.669 24.6191C153.039 23.7953 152.748 22.6807 152.748 21.2268V15.5569H151.343V12.0193H152.748V9.16012L156.722 7.60938V12.0193H158.806V15.5569H156.722Z" fill="#D93B30"/>
<path d="M15.6528 0C7.02681 0 0 7.02681 0 15.6528C0 24.2788 7.02681 31.3057 15.6528 31.3057C24.2788 31.3057 31.3057 24.2788 31.3057 15.6528C31.3057 7.02681 24.3273 0 15.6528 0ZM22.825 12.3575C22.825 13.5206 22.4858 14.6836 21.9043 15.7013C22.5343 16.719 22.825 17.8336 22.825 19.0451V24.8604C22.825 25.1027 22.6312 25.2965 22.3889 25.2965H21.0804C20.8381 25.2965 20.6443 25.1027 20.6443 24.8604V19.0451C20.6443 18.512 20.5474 17.9789 20.3535 17.4459C19.0451 18.512 17.349 19.142 15.6528 19.142C13.9567 19.142 12.2606 18.5605 10.9521 17.4459C10.7583 17.9305 10.6614 18.4635 10.6614 19.0451V24.8604C10.6614 25.1027 10.4675 25.2965 10.2252 25.2965H8.91678C8.67448 25.2965 8.48063 25.1027 8.48063 24.8604V19.0451C8.48063 17.882 8.81986 16.719 9.40139 15.7013C8.7714 14.6836 8.48063 13.569 8.48063 12.3575V6.5422C8.48063 6.2999 8.67448 6.10606 8.91678 6.10606H10.2252C10.4675 6.10606 10.6614 6.2999 10.6614 6.5422V12.3575C10.6614 12.8906 10.7583 13.4236 10.9521 13.9567C12.2606 12.8906 13.9567 12.2606 15.6528 12.2606C17.3974 12.2606 19.0451 12.8421 20.3535 13.9567C20.5474 13.4721 20.6443 12.939 20.6443 12.3575V6.5422C20.6443 6.2999 20.8381 6.10606 21.0804 6.10606H22.3889C22.6312 6.10606 22.825 6.2999 22.825 6.5422V12.3575Z" fill="#D93B30"/>
<path d="M12.1636 15.6538C13.0843 16.5261 14.3443 17.0107 15.6527 17.0107C16.9612 17.0107 18.2212 16.5261 19.1419 15.6538C18.2212 14.7815 16.9612 14.2969 15.6527 14.2969C14.3443 14.2969 13.0843 14.8299 12.1636 15.6538Z" fill="#D93B30"/>
</svg>
